<svg xmlns="http://www.w3.org/2000/svg" xmlns:xlink="http://www.w3.org/1999/xlink" width="500" zoomAndPan="magnify" viewBox="0 0 375 374.999991" height="500" preserveAspectRatio="xMidYMid meet" version="1.0"><defs><g/><clipPath id="96d69f6d1a"><rect x="0" width="180" y="0" height="68"/></clipPath><clipPath id="d89f51c205"><rect x="0" width="29" y="0" height="20"/></clipPath><clipPath id="4bd00380c7"><path d="M 200.550781 159.207031 L 293.550781 159.207031 L 293.550781 223.707031 L 200.550781 223.707031 Z M 200.550781 159.207031 " clip-rule="nonzero"/></clipPath><clipPath id="686e507705"><path d="M 213 159.207031 L 244 159.207031 L 244 188 L 213 188 Z M 213 159.207031 " clip-rule="nonzero"/></clipPath></defs><g transform="matrix(1, 0, 0, 1, 84, 156)"><g clip-path="url(#96d69f6d1a)"><g fill="#ffffff" fill-opacity="1"><g transform="translate(0.400533, 53.604492)"><g><path d="M 3.78125 -37.78125 L 14.46875 -37.78125 L 14.46875 -8.46875 L 32.484375 -8.46875 L 32.484375 0 L 3.78125 0 Z M 3.78125 -37.78125 "/></g></g></g><g fill="#ffffff" fill-opacity="1"><g transform="translate(30.399744, 53.604492)"><g><path d="M 33.1875 -14.578125 C 33.1875 -14.503906 33.132812 -13.65625 33.03125 -12.03125 L 11.765625 -12.03125 C 12.191406 -10.519531 13.023438 -9.359375 14.265625 -8.546875 C 15.515625 -7.742188 17.070312 -7.34375 18.9375 -7.34375 C 20.34375 -7.34375 21.554688 -7.539062 22.578125 -7.9375 C 23.609375 -8.332031 24.644531 -8.976562 25.6875 -9.875 L 31.09375 -4.265625 C 28.25 -1.097656 24.09375 0.484375 18.625 0.484375 C 15.195312 0.484375 12.1875 -0.160156 9.59375 -1.453125 C 7.007812 -2.753906 5.003906 -4.554688 3.578125 -6.859375 C 2.160156 -9.160156 1.453125 -11.765625 1.453125 -14.671875 C 1.453125 -17.554688 2.144531 -20.140625 3.53125 -22.421875 C 4.914062 -24.703125 6.832031 -26.488281 9.28125 -27.78125 C 11.726562 -29.082031 14.484375 -29.734375 17.546875 -29.734375 C 20.453125 -29.734375 23.09375 -29.128906 25.46875 -27.921875 C 27.84375 -26.722656 29.722656 -24.976562 31.109375 -22.6875 C 32.492188 -20.40625 33.1875 -17.703125 33.1875 -14.578125 Z M 17.59375 -22.453125 C 16.007812 -22.453125 14.6875 -22 13.625 -21.09375 C 12.5625 -20.195312 11.890625 -18.976562 11.609375 -17.4375 L 23.578125 -17.4375 C 23.296875 -18.976562 22.625 -20.195312 21.5625 -21.09375 C 20.5 -22 19.175781 -22.453125 17.59375 -22.453125 Z M 17.59375 -22.453125 "/></g></g></g><g fill="#ffffff" fill-opacity="1"><g transform="translate(62.125544, 53.604492)"><g><path d="M 15.765625 -29.734375 C 20.617188 -29.734375 24.320312 -28.625 26.875 -26.40625 C 29.425781 -24.195312 30.703125 -20.8125 30.703125 -16.25 L 30.703125 0 L 21.15625 0 L 21.15625 -3.78125 C 19.675781 -0.9375 16.796875 0.484375 12.515625 0.484375 C 10.253906 0.484375 8.296875 0.0859375 6.640625 -0.703125 C 4.984375 -1.492188 3.734375 -2.5625 2.890625 -3.90625 C 2.046875 -5.257812 1.625 -6.800781 1.625 -8.53125 C 1.625 -11.300781 2.679688 -13.445312 4.796875 -14.96875 C 6.921875 -16.5 10.195312 -17.265625 14.625 -17.265625 L 20.453125 -17.265625 C 20.273438 -20.359375 18.207031 -21.90625 14.25 -21.90625 C 12.84375 -21.90625 11.421875 -21.679688 9.984375 -21.234375 C 8.546875 -20.785156 7.320312 -20.164062 6.3125 -19.375 L 2.859375 -26.34375 C 4.472656 -27.414062 6.441406 -28.25 8.765625 -28.84375 C 11.085938 -29.4375 13.421875 -29.734375 15.765625 -29.734375 Z M 15.375 -5.984375 C 16.5625 -5.984375 17.601562 -6.269531 18.5 -6.84375 C 19.40625 -7.425781 20.054688 -8.273438 20.453125 -9.390625 L 20.453125 -11.921875 L 16.03125 -11.921875 C 13.039062 -11.921875 11.546875 -10.929688 11.546875 -8.953125 C 11.546875 -8.054688 11.882812 -7.335938 12.5625 -6.796875 C 13.25 -6.253906 14.1875 -5.984375 15.375 -5.984375 Z M 15.375 -5.984375 "/></g></g></g><g fill="#ffffff" fill-opacity="1"><g transform="translate(93.095968, 53.604492)"><g><path d="M 21.703125 -29.734375 C 24.359375 -29.734375 26.773438 -29.113281 28.953125 -27.875 C 31.128906 -26.632812 32.851562 -24.867188 34.125 -22.578125 C 35.40625 -20.296875 36.046875 -17.644531 36.046875 -14.625 C 36.046875 -11.601562 35.40625 -8.945312 34.125 -6.65625 C 32.851562 -4.375 31.128906 -2.613281 28.953125 -1.375 C 26.773438 -0.132812 24.359375 0.484375 21.703125 0.484375 C 18.273438 0.484375 15.554688 -0.539062 13.546875 -2.59375 L 13.546875 10.46875 L 3.296875 10.46875 L 3.296875 -29.25 L 13.0625 -29.25 L 13.0625 -26.34375 C 14.96875 -28.601562 17.847656 -29.734375 21.703125 -29.734375 Z M 19.53125 -7.65625 C 21.332031 -7.65625 22.804688 -8.273438 23.953125 -9.515625 C 25.109375 -10.765625 25.6875 -12.46875 25.6875 -14.625 C 25.6875 -16.78125 25.109375 -18.476562 23.953125 -19.71875 C 22.804688 -20.96875 21.332031 -21.59375 19.53125 -21.59375 C 17.738281 -21.59375 16.265625 -20.96875 15.109375 -19.71875 C 13.960938 -18.476562 13.390625 -16.78125 13.390625 -14.625 C 13.390625 -12.46875 13.960938 -10.765625 15.109375 -9.515625 C 16.265625 -8.273438 17.738281 -7.65625 19.53125 -7.65625 Z M 19.53125 -7.65625 "/></g></g></g><g fill="#ffffff" fill-opacity="1"><g transform="translate(127.683564, 53.604492)"><g/></g></g><g fill="#ffffff" fill-opacity="1"><g transform="translate(140.470799, 53.604492)"><g/></g></g><g fill="#ffffff" fill-opacity="1"><g transform="translate(153.258034, 53.604492)"><g/></g></g><g fill="#ffffff" fill-opacity="1"><g transform="translate(166.045268, 53.604492)"><g/></g></g></g></g><g transform="matrix(1, 0, 0, 1, 265, 140)"><g clip-path="url(#d89f51c205)"><g fill="#ffffff" fill-opacity="1"><g transform="translate(1.298097, 15.207464)"><g><path d="M 9.578125 -5.84375 C 10.222656 -5.632812 10.726562 -5.289062 11.09375 -4.8125 C 11.457031 -4.34375 11.640625 -3.757812 11.640625 -3.0625 C 11.640625 -2.082031 11.253906 -1.328125 10.484375 -0.796875 C 9.722656 -0.265625 8.609375 0 7.140625 0 L 1.328125 0 L 1.328125 -11.234375 L 6.8125 -11.234375 C 8.1875 -11.234375 9.238281 -10.96875 9.96875 -10.4375 C 10.707031 -9.914062 11.078125 -9.207031 11.078125 -8.3125 C 11.078125 -7.769531 10.941406 -7.28125 10.671875 -6.84375 C 10.410156 -6.414062 10.046875 -6.082031 9.578125 -5.84375 Z M 3.921875 -9.28125 L 3.921875 -6.625 L 6.5 -6.625 C 7.144531 -6.625 7.628906 -6.734375 7.953125 -6.953125 C 8.285156 -7.179688 8.453125 -7.515625 8.453125 -7.953125 C 8.453125 -8.390625 8.285156 -8.71875 7.953125 -8.9375 C 7.628906 -9.164062 7.144531 -9.28125 6.5 -9.28125 Z M 6.953125 -1.953125 C 7.628906 -1.953125 8.140625 -2.0625 8.484375 -2.28125 C 8.835938 -2.507812 9.015625 -2.863281 9.015625 -3.34375 C 9.015625 -4.269531 8.328125 -4.734375 6.953125 -4.734375 L 3.921875 -4.734375 L 3.921875 -1.953125 Z M 6.953125 -1.953125 "/></g></g></g><g fill="#ffffff" fill-opacity="1"><g transform="translate(14.084798, 15.207464)"><g><path d="M 1.328125 -11.234375 L 6.4375 -11.234375 C 7.65625 -11.234375 8.734375 -11 9.671875 -10.53125 C 10.609375 -10.070312 11.332031 -9.414062 11.84375 -8.5625 C 12.363281 -7.71875 12.625 -6.734375 12.625 -5.609375 C 12.625 -4.492188 12.363281 -3.507812 11.84375 -2.65625 C 11.332031 -1.8125 10.609375 -1.15625 9.671875 -0.6875 C 8.734375 -0.226562 7.65625 0 6.4375 0 L 1.328125 0 Z M 6.3125 -2.140625 C 7.425781 -2.140625 8.316406 -2.453125 8.984375 -3.078125 C 9.660156 -3.703125 10 -4.546875 10 -5.609375 C 10 -6.679688 9.660156 -7.53125 8.984375 -8.15625 C 8.316406 -8.78125 7.425781 -9.09375 6.3125 -9.09375 L 3.9375 -9.09375 L 3.9375 -2.140625 Z M 6.3125 -2.140625 "/></g></g></g></g></g><g clip-path="url(#4bd00380c7)"><path fill="#d71920" d="M 293.136719 159.191406 L 265.550781 159.191406 L 200.652344 223.480469 L 236.464844 198.699219 L 250.769531 223.480469 L 271.996094 223.480469 L 251.628906 188.203125 L 293.136719 159.191406 " fill-opacity="1" fill-rule="nonzero"/></g><g clip-path="url(#686e507705)"><path fill="#00bf63" d="M 213.367188 159.191406 L 229.804688 187.164062 L 243.105469 173.441406 L 234.625 159.191406 L 213.367188 159.191406 " fill-opacity="1" fill-rule="nonzero"/></g></svg>